<svg xmlns="http://www.w3.org/2000/svg" width="33" height="33" viewBox="0 0 33 33" shape-rendering="crispEdges">
  <rect x="9" y="0" width="15" height="3" fill="#bf4cf0"/>
  <rect x="6" y="3" width="3" height="3" fill="#bf4cf0"/>
  <rect x="9" y="3" width="15" height="3" fill="#ff3ba0"/>
  <rect x="24" y="3" width="3" height="3" fill="#bf4cf0"/>
  <rect x="3" y="6" width="3" height="3" fill="#bf4cf0"/>
  <rect x="6" y="6" width="6" height="3" fill="#ff3ba0"/>
  <rect x="12" y="6" width="9" height="3" fill="#ffffff"/>
  <rect x="21" y="6" width="6" height="3" fill="#ff3ba0"/>
  <rect x="27" y="6" width="3" height="3" fill="#bf4cf0"/>
  <rect x="0" y="9" width="3" height="3" fill="#bf4cf0"/>
  <rect x="3" y="9" width="6" height="3" fill="#ff3ba0"/>
  <rect x="9" y="9" width="15" height="3" fill="#ffffff"/>
  <rect x="24" y="9" width="6" height="3" fill="#ff3ba0"/>
  <rect x="30" y="9" width="3" height="3" fill="#bf4cf0"/>
  <rect x="0" y="12" width="3" height="3" fill="#bf4cf0"/>
  <rect x="3" y="12" width="3" height="3" fill="#ff3ba0"/>
  <rect x="6" y="12" width="21" height="3" fill="#ffffff"/>
  <rect x="27" y="12" width="3" height="3" fill="#ff3ba0"/>
  <rect x="30" y="12" width="3" height="3" fill="#bf4cf0"/>
  <rect x="0" y="15" width="3" height="3" fill="#bf4cf0"/>
  <rect x="3" y="15" width="3" height="3" fill="#ff3ba0"/>
  <rect x="6" y="15" width="21" height="3" fill="#ffffff"/>
  <rect x="27" y="15" width="3" height="3" fill="#ff3ba0"/>
  <rect x="30" y="15" width="3" height="3" fill="#bf4cf0"/>
  <rect x="0" y="18" width="3" height="3" fill="#bf4cf0"/>
  <rect x="3" y="18" width="3" height="3" fill="#ff3ba0"/>
  <rect x="6" y="18" width="21" height="3" fill="#ffffff"/>
  <rect x="27" y="18" width="3" height="3" fill="#ff3ba0"/>
  <rect x="30" y="18" width="3" height="3" fill="#bf4cf0"/>
  <rect x="0" y="21" width="3" height="3" fill="#bf4cf0"/>
  <rect x="3" y="21" width="6" height="3" fill="#ff3ba0"/>
  <rect x="9" y="21" width="15" height="3" fill="#ffffff"/>
  <rect x="24" y="21" width="6" height="3" fill="#ff3ba0"/>
  <rect x="30" y="21" width="3" height="3" fill="#bf4cf0"/>
  <rect x="3" y="24" width="3" height="3" fill="#bf4cf0"/>
  <rect x="6" y="24" width="6" height="3" fill="#ff3ba0"/>
  <rect x="12" y="24" width="9" height="3" fill="#ffffff"/>
  <rect x="21" y="24" width="6" height="3" fill="#ff3ba0"/>
  <rect x="27" y="24" width="3" height="3" fill="#bf4cf0"/>
  <rect x="6" y="27" width="3" height="3" fill="#bf4cf0"/>
  <rect x="9" y="27" width="15" height="3" fill="#ff3ba0"/>
  <rect x="24" y="27" width="3" height="3" fill="#bf4cf0"/>
  <rect x="9" y="30" width="15" height="3" fill="#bf4cf0"/>
</svg>
