<svg xmlns="http://www.w3.org/2000/svg" width="60" height="60" viewBox="0 0 60 60" shape-rendering="crispEdges">
  <rect x="28" y="0" width="4" height="2" fill="#ffffff"/>
  <rect x="26" y="2" width="8" height="2" fill="#ffffff"/>
  <rect x="26" y="4" width="8" height="2" fill="#ffffff"/>
  <rect x="24" y="6" width="12" height="2" fill="#ffffff"/>
  <rect x="24" y="8" width="2" height="2" fill="#ffffff"/>
  <rect x="26" y="8" width="2" height="2" fill="#1f56ff"/>
  <rect x="28" y="8" width="4" height="2" fill="#ffffff"/>
  <rect x="32" y="8" width="2" height="2" fill="#1f56ff"/>
  <rect x="34" y="8" width="2" height="2" fill="#ffffff"/>
  <rect x="22" y="10" width="4" height="2" fill="#ffffff"/>
  <rect x="26" y="10" width="2" height="2" fill="#1f56ff"/>
  <rect x="28" y="10" width="4" height="2" fill="#ffffff"/>
  <rect x="32" y="10" width="2" height="2" fill="#1f56ff"/>
  <rect x="34" y="10" width="4" height="2" fill="#ffffff"/>
  <rect x="22" y="12" width="4" height="2" fill="#ffffff"/>
  <rect x="26" y="12" width="2" height="2" fill="#1f56ff"/>
  <rect x="28" y="12" width="4" height="2" fill="#ffffff"/>
  <rect x="32" y="12" width="2" height="2" fill="#1f56ff"/>
  <rect x="34" y="12" width="4" height="2" fill="#ffffff"/>
  <rect x="22" y="14" width="4" height="2" fill="#ffffff"/>
  <rect x="26" y="14" width="2" height="2" fill="#1f56ff"/>
  <rect x="28" y="14" width="4" height="2" fill="#ffffff"/>
  <rect x="32" y="14" width="2" height="2" fill="#1f56ff"/>
  <rect x="34" y="14" width="4" height="2" fill="#ffffff"/>
  <rect x="20" y="16" width="20" height="2" fill="#ffffff"/>
  <rect x="20" y="18" width="20" height="2" fill="#ffffff"/>
  <rect x="8" y="20" width="2" height="2" fill="#ff1f28"/>
  <rect x="20" y="20" width="20" height="2" fill="#ffffff"/>
  <rect x="50" y="20" width="2" height="2" fill="#ff1f28"/>
  <rect x="8" y="22" width="2" height="2" fill="#ff1f28"/>
  <rect x="20" y="22" width="20" height="2" fill="#ffffff"/>
  <rect x="50" y="22" width="2" height="2" fill="#ff1f28"/>
  <rect x="8" y="24" width="2" height="2" fill="#ff1f28"/>
  <rect x="18" y="24" width="24" height="2" fill="#ffffff"/>
  <rect x="50" y="24" width="2" height="2" fill="#ff1f28"/>
  <rect x="8" y="26" width="2" height="2" fill="#ff1f28"/>
  <rect x="18" y="26" width="24" height="2" fill="#ffffff"/>
  <rect x="50" y="26" width="2" height="2" fill="#ff1f28"/>
  <rect x="8" y="28" width="2" height="2" fill="#ff1f28"/>
  <rect x="16" y="28" width="28" height="2" fill="#ffffff"/>
  <rect x="50" y="28" width="2" height="2" fill="#ff1f28"/>
  <rect x="6" y="30" width="4" height="2" fill="#ff1f28"/>
  <rect x="10" y="30" width="2" height="2" fill="#ffffff"/>
  <rect x="16" y="30" width="4" height="2" fill="#ffffff"/>
  <rect x="20" y="30" width="2" height="2" fill="#ff1f28"/>
  <rect x="22" y="30" width="16" height="2" fill="#ffffff"/>
  <rect x="38" y="30" width="2" height="2" fill="#ff1f28"/>
  <rect x="40" y="30" width="4" height="2" fill="#ffffff"/>
  <rect x="48" y="30" width="2" height="2" fill="#ffffff"/>
  <rect x="50" y="30" width="4" height="2" fill="#ff1f28"/>
  <rect x="6" y="32" width="4" height="2" fill="#ff1f28"/>
  <rect x="10" y="32" width="2" height="2" fill="#ffffff"/>
  <rect x="16" y="32" width="4" height="2" fill="#ffffff"/>
  <rect x="20" y="32" width="2" height="2" fill="#ff1f28"/>
  <rect x="22" y="32" width="16" height="2" fill="#ffffff"/>
  <rect x="38" y="32" width="2" height="2" fill="#ff1f28"/>
  <rect x="40" y="32" width="4" height="2" fill="#ffffff"/>
  <rect x="48" y="32" width="2" height="2" fill="#ffffff"/>
  <rect x="50" y="32" width="4" height="2" fill="#ff1f28"/>
  <rect x="4" y="34" width="4" height="2" fill="#ff1f28"/>
  <rect x="8" y="34" width="6" height="2" fill="#ffffff"/>
  <rect x="16" y="34" width="4" height="2" fill="#ffffff"/>
  <rect x="20" y="34" width="2" height="2" fill="#ff1f28"/>
  <rect x="22" y="34" width="16" height="2" fill="#ffffff"/>
  <rect x="38" y="34" width="2" height="2" fill="#ff1f28"/>
  <rect x="40" y="34" width="4" height="2" fill="#ffffff"/>
  <rect x="46" y="34" width="6" height="2" fill="#ffffff"/>
  <rect x="52" y="34" width="4" height="2" fill="#ff1f28"/>
  <rect x="4" y="36" width="4" height="2" fill="#ff1f28"/>
  <rect x="8" y="36" width="6" height="2" fill="#ffffff"/>
  <rect x="16" y="36" width="4" height="2" fill="#ffffff"/>
  <rect x="20" y="36" width="2" height="2" fill="#ff1f28"/>
  <rect x="22" y="36" width="16" height="2" fill="#ffffff"/>
  <rect x="38" y="36" width="2" height="2" fill="#ff1f28"/>
  <rect x="40" y="36" width="4" height="2" fill="#ffffff"/>
  <rect x="46" y="36" width="6" height="2" fill="#ffffff"/>
  <rect x="52" y="36" width="4" height="2" fill="#ff1f28"/>
  <rect x="2" y="38" width="4" height="2" fill="#ff1f28"/>
  <rect x="6" y="38" width="14" height="2" fill="#ffffff"/>
  <rect x="20" y="38" width="2" height="2" fill="#ff1f28"/>
  <rect x="22" y="38" width="16" height="2" fill="#ffffff"/>
  <rect x="38" y="38" width="2" height="2" fill="#ff1f28"/>
  <rect x="40" y="38" width="14" height="2" fill="#ffffff"/>
  <rect x="54" y="38" width="4" height="2" fill="#ff1f28"/>
  <rect x="2" y="40" width="4" height="2" fill="#ff1f28"/>
  <rect x="6" y="40" width="14" height="2" fill="#ffffff"/>
  <rect x="20" y="40" width="2" height="2" fill="#ff1f28"/>
  <rect x="22" y="40" width="16" height="2" fill="#ffffff"/>
  <rect x="38" y="40" width="2" height="2" fill="#ff1f28"/>
  <rect x="40" y="40" width="14" height="2" fill="#ffffff"/>
  <rect x="54" y="40" width="4" height="2" fill="#ff1f28"/>
  <rect x="0" y="42" width="4" height="2" fill="#ff1f28"/>
  <rect x="4" y="42" width="12" height="2" fill="#ffffff"/>
  <rect x="18" y="42" width="2" height="2" fill="#ffffff"/>
  <rect x="20" y="42" width="2" height="2" fill="#ff1f28"/>
  <rect x="22" y="42" width="16" height="2" fill="#ffffff"/>
  <rect x="38" y="42" width="2" height="2" fill="#ff1f28"/>
  <rect x="40" y="42" width="2" height="2" fill="#ffffff"/>
  <rect x="44" y="42" width="12" height="2" fill="#ffffff"/>
  <rect x="56" y="42" width="4" height="2" fill="#ff1f28"/>
  <rect x="0" y="44" width="4" height="2" fill="#ff1f28"/>
  <rect x="4" y="44" width="10" height="2" fill="#ffffff"/>
  <rect x="18" y="44" width="2" height="2" fill="#ffffff"/>
  <rect x="20" y="44" width="2" height="2" fill="#ff1f28"/>
  <rect x="22" y="44" width="16" height="2" fill="#ffffff"/>
  <rect x="38" y="44" width="2" height="2" fill="#ff1f28"/>
  <rect x="40" y="44" width="2" height="2" fill="#ffffff"/>
  <rect x="46" y="44" width="10" height="2" fill="#ffffff"/>
  <rect x="56" y="44" width="4" height="2" fill="#ff1f28"/>
  <rect x="0" y="46" width="4" height="2" fill="#ff1f28"/>
  <rect x="4" y="46" width="6" height="2" fill="#ffffff"/>
  <rect x="18" y="46" width="2" height="2" fill="#ffffff"/>
  <rect x="20" y="46" width="2" height="2" fill="#ff1f28"/>
  <rect x="22" y="46" width="16" height="2" fill="#ffffff"/>
  <rect x="38" y="46" width="2" height="2" fill="#ff1f28"/>
  <rect x="40" y="46" width="2" height="2" fill="#ffffff"/>
  <rect x="50" y="46" width="6" height="2" fill="#ffffff"/>
  <rect x="56" y="46" width="4" height="2" fill="#ff1f28"/>
  <rect x="0" y="48" width="2" height="2" fill="#ff1f28"/>
  <rect x="2" y="48" width="4" height="2" fill="#ffffff"/>
  <rect x="18" y="48" width="2" height="2" fill="#ffffff"/>
  <rect x="20" y="48" width="2" height="2" fill="#ff1f28"/>
  <rect x="22" y="48" width="16" height="2" fill="#ffffff"/>
  <rect x="38" y="48" width="2" height="2" fill="#ff1f28"/>
  <rect x="40" y="48" width="2" height="2" fill="#ffffff"/>
  <rect x="54" y="48" width="4" height="2" fill="#ffffff"/>
  <rect x="58" y="48" width="2" height="2" fill="#ff1f28"/>
  <rect x="0" y="50" width="2" height="2" fill="#ff1f28"/>
  <rect x="2" y="50" width="2" height="2" fill="#ffffff"/>
  <rect x="18" y="50" width="2" height="2" fill="#ffffff"/>
  <rect x="20" y="50" width="2" height="2" fill="#ff1f28"/>
  <rect x="24" y="50" width="12" height="2" fill="#ffffff"/>
  <rect x="38" y="50" width="2" height="2" fill="#ff1f28"/>
  <rect x="40" y="50" width="2" height="2" fill="#ffffff"/>
  <rect x="56" y="50" width="2" height="2" fill="#ffffff"/>
  <rect x="58" y="50" width="2" height="2" fill="#ff1f28"/>
  <rect x="18" y="52" width="2" height="2" fill="#ffffff"/>
  <rect x="20" y="52" width="2" height="2" fill="#ff1f28"/>
  <rect x="24" y="52" width="12" height="2" fill="#ffffff"/>
  <rect x="38" y="52" width="2" height="2" fill="#ff1f28"/>
  <rect x="40" y="52" width="2" height="2" fill="#ffffff"/>
  <rect x="16" y="54" width="4" height="2" fill="#ff1f28"/>
  <rect x="24" y="54" width="2" height="2" fill="#ff1f28"/>
  <rect x="26" y="54" width="8" height="2" fill="#ffffff"/>
  <rect x="34" y="54" width="2" height="2" fill="#ff1f28"/>
  <rect x="40" y="54" width="4" height="2" fill="#ff1f28"/>
  <rect x="16" y="56" width="2" height="2" fill="#ff1f28"/>
  <rect x="26" y="56" width="2" height="2" fill="#ff8a12"/>
  <rect x="28" y="56" width="4" height="2" fill="#ffffff"/>
  <rect x="32" y="56" width="2" height="2" fill="#ff8a12"/>
  <rect x="42" y="56" width="2" height="2" fill="#ff1f28"/>
  <rect x="26" y="58" width="2" height="2" fill="#ff8a12"/>
  <rect x="32" y="58" width="2" height="2" fill="#ff8a12"/>
</svg>
